<svg width="23" height="29" viewBox="0 0 23 29" fill="none" xmlns="http://www.w3.org/2000/svg">
    <path d="M15.5077 23.2297C15.5077 24.2188 15.1148 25.1673 14.4154 25.8667C13.7161 26.566 12.7675 26.9589 11.7785 26.9589C10.7895 26.9589 9.84094 26.566 9.14159 25.8667C8.44223 25.1673 8.04934 24.2188 8.04934 23.2297M12.6748 5.83069L10.8524 5.82696C6.69565 5.81701 3.08706 9.1944 3.05847 13.2853L3.05847 17.9965C3.05847 18.9785 2.93416 19.9369 2.39841 20.7536L2.04165 21.298C1.49843 22.1234 2.08267 23.2297 3.05847 23.2297L20.4986 23.2297C21.4744 23.2297 22.0573 22.1234 21.5154 21.298L21.1586 20.7536C20.6241 19.9369 20.4986 18.9773 20.4986 17.9952V13.2865C20.4488 9.1944 16.8315 5.84063 12.6748 5.83069V5.83069Z" stroke="white" stroke-width="2.48611" stroke-linecap="round" stroke-linejoin="round"/>
    <path d="M11.779 2.09798C12.4383 2.09798 13.0707 2.35991 13.5369 2.82614C14.0031 3.29238 14.2651 3.92473 14.2651 4.58409V5.82715L9.29285 5.82715V4.58409C9.29285 3.92473 9.55478 3.29238 10.021 2.82614C10.4872 2.35991 11.1196 2.09798 11.779 2.09798Z" stroke="white" stroke-width="2.48611" stroke-linecap="round" stroke-linejoin="round"/>
</svg>
