<svg width="15" height="16" viewBox="0 0 15 16" fill="none" xmlns="http://www.w3.org/2000/svg">
    <path
        d="M7.5 12.7115L7.1954 13.3968C7.38932 13.483 7.61068 13.483 7.8046 13.3968L7.5 12.7115ZM6.72498 3.5744L7.26487 3.0538V3.0538L6.72498 3.5744ZM8.27502 3.5744L7.73513 3.0538V3.0538L8.27502 3.5744ZM7.0501 3.91156L6.51021 4.43216L6.51021 4.43216L7.0501 3.91156ZM7.9499 3.91156L7.41002 3.39096V3.39096L7.9499 3.91156ZM6.1851 4.095L6.51021 4.43216L7.58998 3.39096L7.26487 3.0538L6.1851 4.095ZM8.48979 4.43216L8.8149 4.095L7.73513 3.0538L7.41002 3.39096L8.48979 4.43216ZM10.2839 1.96146C9.32256 1.96146 8.40631 2.35777 7.73513 3.0538L8.8149 4.095C9.20933 3.68597 9.73835 3.46146 10.2839 3.46146V1.96146ZM13.875 6.28273C13.875 4.9883 13.5194 3.90874 12.8635 3.13985C12.201 2.36338 11.279 1.96146 10.2839 1.96146V3.46146C10.858 3.46146 11.3564 3.68453 11.7223 4.11338C12.0946 4.54981 12.375 5.25589 12.375 6.28273H13.875ZM4.71605 3.46146C5.26165 3.46146 5.79067 3.68597 6.1851 4.095L7.26487 3.0538C6.59369 2.35777 5.67744 1.96146 4.71605 1.96146V3.46146ZM2.625 6.28273C2.625 5.25263 2.90161 4.54689 3.27075 4.11187C3.63214 3.68597 4.12893 3.46146 4.71605 3.46146V1.96146C3.71212 1.96146 2.78839 2.36194 2.12702 3.14136C1.47339 3.91166 1.125 4.99156 1.125 6.28273H2.625ZM7.5 12.7115C7.8046 12.0261 7.80478 12.0262 7.80493 12.0262C7.80495 12.0263 7.80508 12.0263 7.80513 12.0263C7.80522 12.0264 7.80523 12.0264 7.80515 12.0263C7.805 12.0263 7.80451 12.0261 7.80369 12.0257C7.80205 12.0249 7.7991 12.0236 7.79487 12.0217C7.78642 12.0178 7.77288 12.0116 7.75458 12.0031C7.71799 11.9859 7.66244 11.9595 7.59066 11.924C7.44699 11.853 7.2389 11.746 6.98797 11.6053C6.48435 11.3228 5.81697 10.9093 5.15375 10.3829C3.78722 9.29834 2.625 7.8854 2.625 6.28273H1.125C1.125 8.6088 2.77528 10.4102 4.22125 11.5578C4.96428 12.1475 5.70315 12.6045 6.25422 12.9136C6.53063 13.0686 6.76199 13.1877 6.92594 13.2687C7.00797 13.3092 7.07327 13.3404 7.11907 13.3618C7.14198 13.3725 7.16002 13.3808 7.17285 13.3866C7.17927 13.3896 7.18439 13.3919 7.18816 13.3936C7.19004 13.3944 7.19159 13.3951 7.1928 13.3957C7.1934 13.3959 7.19392 13.3962 7.19436 13.3964C7.19457 13.3964 7.19483 13.3966 7.19494 13.3966C7.19518 13.3967 7.1954 13.3968 7.5 12.7115ZM12.375 6.28273C12.375 7.8854 11.2128 9.29834 9.84625 10.3829C9.18303 10.9093 8.51565 11.3228 8.01203 11.6053C7.7611 11.746 7.55301 11.853 7.40934 11.924C7.33756 11.9595 7.28201 11.9859 7.24542 12.0031C7.22712 12.0116 7.21358 12.0178 7.20513 12.0217C7.2009 12.0236 7.19795 12.0249 7.19631 12.0257C7.19549 12.0261 7.195 12.0263 7.19485 12.0263C7.19477 12.0264 7.19478 12.0264 7.19487 12.0263C7.19492 12.0263 7.19505 12.0263 7.19507 12.0262C7.19522 12.0262 7.1954 12.0261 7.5 12.7115C7.8046 13.3968 7.80482 13.3967 7.80506 13.3966C7.80517 13.3966 7.80543 13.3964 7.80564 13.3964C7.80608 13.3962 7.8066 13.3959 7.8072 13.3957C7.80841 13.3951 7.80996 13.3944 7.81184 13.3936C7.81561 13.3919 7.82073 13.3896 7.82715 13.3866C7.83998 13.3808 7.85802 13.3725 7.88093 13.3618C7.92673 13.3404 7.99203 13.3092 8.07406 13.2687C8.23801 13.1877 8.46937 13.0686 8.74578 12.9136C9.29685 12.6045 10.0357 12.1475 10.7787 11.5578C12.2247 10.4102 13.875 8.6088 13.875 6.28273H12.375ZM6.51021 4.43216C7.05094 4.99291 7.94906 4.99291 8.48979 4.43216L7.41002 3.39096C7.45918 3.33998 7.54082 3.33998 7.58998 3.39096L6.51021 4.43216Z"
        fill="black" />
</svg>
