<svg width="152" height="124" viewBox="0 0 152 124" fill="none" xmlns="http://www.w3.org/2000/svg">
    <rect x="75.3212" y="-5.85388" width="91.0111" height="95.4791" rx="17.4028" transform="rotate(26.0633 75.3212 -5.85388)" fill="#F8D910"/>
    <mask id="path-2-inside-1_0_1" fill="white">
        <path fill-rule="evenodd" clip-rule="evenodd" d="M95.4443 4.40157C85.577 -0.424542 73.6656 3.66218 68.8395 13.5295L61.6206 28.2889C57.722 27.2781 53.6328 26.7402 49.4181 26.7402C22.6437 26.7402 0.938843 48.4451 0.938843 75.2194C0.938843 101.994 22.6437 123.699 49.4181 123.699C66.503 123.699 81.5237 114.861 90.1579 101.507L100.812 106.718C110.679 111.544 122.591 107.458 127.417 97.5903L149.286 52.8761C154.113 43.0088 150.026 31.0974 140.158 26.2713L95.4443 4.40157Z"/>
    </mask>
    <path fill-rule="evenodd" clip-rule="evenodd" d="M95.4443 4.40157C85.577 -0.424542 73.6656 3.66218 68.8395 13.5295L61.6206 28.2889C57.722 27.2781 53.6328 26.7402 49.4181 26.7402C22.6437 26.7402 0.938843 48.4451 0.938843 75.2194C0.938843 101.994 22.6437 123.699 49.4181 123.699C66.503 123.699 81.5237 114.861 90.1579 101.507L100.812 106.718C110.679 111.544 122.591 107.458 127.417 97.5903L149.286 52.8761C154.113 43.0088 150.026 31.0974 140.158 26.2713L95.4443 4.40157Z" fill="#FE7A15"/>
    <path d="M68.8395 13.5295L63.2562 10.7987V10.7987L68.8395 13.5295ZM95.4443 4.40157L98.1751 -1.18167V-1.18167L95.4443 4.40157ZM61.6206 28.2889L60.0607 34.3053L64.9739 35.5791L67.2039 31.0197L61.6206 28.2889ZM90.1579 101.507L92.8887 95.9242L87.9337 93.5007L84.9387 98.1327L90.1579 101.507ZM100.812 106.718L98.0811 112.302L100.812 106.718ZM127.417 97.5903L133 100.321L127.417 97.5903ZM149.286 52.8761L154.87 55.6069V55.6069L149.286 52.8761ZM140.158 26.2713L137.428 31.8545V31.8545L140.158 26.2713ZM74.4227 16.2603C77.7407 9.47649 85.9298 6.66687 92.7136 9.98482L98.1751 -1.18167C85.2242 -7.51595 69.5905 -2.15212 63.2562 10.7987L74.4227 16.2603ZM67.2039 31.0197L74.4227 16.2603L63.2562 10.7987L56.0374 25.5582L67.2039 31.0197ZM49.4181 32.9555C53.1021 32.9555 56.6672 33.4254 60.0607 34.3053L63.1805 22.2726C58.7768 21.1308 54.1636 20.525 49.4181 20.525V32.9555ZM7.15413 75.2194C7.15413 51.8777 26.0763 32.9555 49.4181 32.9555V20.525C19.2111 20.525 -5.27644 45.0125 -5.27644 75.2194H7.15413ZM49.4181 117.483C26.0763 117.483 7.15413 98.5612 7.15413 75.2194H-5.27644C-5.27644 105.426 19.2111 129.914 49.4181 129.914V117.483ZM84.9387 98.1327C77.4011 109.79 64.3062 117.483 49.4181 117.483V129.914C68.6998 129.914 85.6464 119.932 95.3772 104.882L84.9387 98.1327ZM103.543 101.135L92.8887 95.9242L87.4272 107.091L98.0811 112.302L103.543 101.135ZM121.833 94.8596C118.516 101.643 110.326 104.453 103.543 101.135L98.0811 112.302C111.032 118.636 126.666 113.272 133 100.321L121.833 94.8596ZM143.703 50.1454L121.833 94.8596L133 100.321L154.87 55.6069L143.703 50.1454ZM137.428 31.8545C144.212 35.1725 147.021 43.3616 143.703 50.1454L154.87 55.6069C161.204 42.656 155.84 27.0223 142.889 20.688L137.428 31.8545ZM92.7136 9.98482L137.428 31.8545L142.889 20.688L98.1751 -1.18167L92.7136 9.98482Z" fill="#FAF6F5" mask="url(#path-2-inside-1_0_1)"/>
    <rect x="80.8858" y="2" width="80.7913" height="80.7108" rx="17.4028" transform="rotate(26.0633 80.8858 2)" fill="#32ABFF"/>
    <path d="M94.9549 59.9792L109.312 64.4957" stroke="black" stroke-width="6.46804"/>
    <circle r="13.2963" transform="matrix(-0.536343 0.844 0.844 0.536343 115.572 44.1937)" fill="white"/>
    <circle r="3.32407" transform="matrix(-0.536343 0.844 0.844 0.536343 115.571 44.1929)" fill="#0D0D0D"/>
    <circle r="13.2963" transform="matrix(-0.536343 0.844 0.844 0.536343 92.8787 39.6174)" fill="white"/>
    <circle r="3.32407" transform="matrix(-0.536343 0.844 0.844 0.536343 92.8794 39.6182)" fill="#0D0D0D"/>
    <path d="M14.6111 67.7037C16.2685 69.9827 21.1993 73.4218 27.6632 68.9468C29.5278 66.875 32.1382 61.6128 27.6632 57.1378" stroke="black" stroke-width="3.72917"/>
    <path d="M36.364 49.6787C38.0214 51.9577 42.9522 55.3968 49.4161 50.9218C51.2807 48.85 53.8911 43.5877 49.4161 39.1127" stroke="black" stroke-width="3.72917"/>
    <path d="M47.1221 61.272C47.4537 65.081 46.04271.8452 37.7428 68.4297" stroke="black" stroke-width="3.72917"/>
</svg>