<svg width="67" height="27" viewBox="0 0 67 27" fill="none" xmlns="http://www.w3.org/2000/svg">
    <path d="M6.96849 5.53832C6.8855 5.45365 6.78664 5.38616 6.67756 5.3397C6.56848 5.29325 6.45131 5.26874 6.33276 5.26759C6.2142 5.26644 6.09658 5.28865 5.98661 5.33297C5.87665 5.37729 5.77649 5.44285 5.69187 5.52589C4.73466 6.47755 3.97535 7.60933 3.45776 8.85593C2.94018 10.1025 2.67455 11.4393 2.67622 12.7891C2.67466 14.1906 2.96119 15.5776 3.51802 16.8638C4.07484 18.15 4.89008 19.3081 5.91314 20.2661C6.08532 20.4252 6.31277 20.511 6.54718 20.5052C6.7816 20.4994 7.00452 20.4025 7.16862 20.235C7.56143 19.8422 7.51295 19.2169 7.13506 18.8552C6.31402 18.0727 5.66066 17.1315 5.21468 16.0887C4.76871 15.0459 4.53944 13.9232 4.5408 12.7891C4.5408 10.4944 5.46191 8.41351 6.95606 6.89947C7.31655 6.53277 7.35384 5.92367 6.96849 5.53832ZM9.15751 7.72983C8.9938 7.56138 8.76999 7.4647 8.53512 7.46097C8.30026 7.45724 8.07349 7.54677 7.90451 7.70994C7.23196 8.37368 6.69811 9.16454 6.33404 10.0365C5.96998 10.9085 5.78295 11.8442 5.78386 12.7891C5.7824 13.7882 5.99115 14.7764 6.39655 15.6896C6.80195 16.6028 7.39493 17.4204 8.13696 18.0895C8.30757 18.2402 8.52963 18.3195 8.75713 18.3109C8.98462 18.3024 9.2001 18.2066 9.35889 18.0435C9.76661 17.6357 9.69078 16.9943 9.30792 16.6338C8.78312 16.1405 8.36507 15.5448 8.07964 14.8835C7.79421 14.2222 7.64745 13.5093 7.64844 12.7891C7.64844 11.3596 8.21652 10.0618 9.14011 9.10962C9.49563 8.74417 9.55405 8.12388 9.15751 7.72859V7.72983ZM16.0838 7.72983C16.2475 7.56138 16.4713 7.4647 16.7062 7.46097C16.9411 7.45724 17.1679 7.54677 17.3368 7.70994C18.0094 8.37368 18.5432 9.16454 18.9073 10.0365C19.2714 10.9085 19.4584 11.8442 19.4575 12.7891C19.4589 13.7882 19.2502 14.7764 18.8448 15.6896C18.4394 16.6028 17.8464 17.4204 17.1044 18.0895C16.9338 18.2402 16.7117 18.3195 16.4842 18.3109C16.2567 18.3024 16.0412 18.2066 15.8825 18.0435C15.4747 17.6357 15.5506 16.9943 15.9334 16.6338C16.4582 16.1405 16.8763 15.5448 17.1617 14.8835C17.4471 14.2222 17.5939 13.5093 17.5929 12.7891C17.5929 11.3596 17.0248 10.0618 16.1012 9.10962C15.7457 8.74417 15.6873 8.12388 16.0838 7.72859V7.72983ZM18.2728 5.53957C18.3558 5.45489 18.4547 5.3874 18.5638 5.34095C18.6729 5.29449 18.79 5.26999 18.9086 5.26883C19.0271 5.26768 19.1448 5.2899 19.2547 5.33422C19.3647 5.37854 19.4648 5.44409 19.5495 5.52713C20.5065 6.47865 21.2658 7.61022 21.7833 8.8566C22.3009 10.103 22.5666 11.4395 22.5651 12.7891C22.5667 14.1906 22.2801 15.5776 21.7233 16.8638C21.1665 18.15 20.3513 19.3081 19.3282 20.2661C19.156 20.4252 18.9286 20.511 18.6942 20.5052C18.4597 20.4994 18.2368 20.4025 18.0727 20.235C17.6799 19.8422 17.7284 19.2169 18.1075 18.8552C18.9283 18.0726 19.5815 17.1313 20.0272 16.0885C20.473 15.0457 20.7021 13.9232 20.7005 12.7891C20.7005 10.4944 19.7794 8.41351 18.2853 6.89947C17.9248 6.53277 17.8875 5.92367 18.2728 5.53832V5.53957ZM12.6207 10.9245C12.1262 10.9245 11.6519 11.1209 11.3022 11.4706C10.9525 11.8203 10.7561 12.2946 10.7561 12.7891C10.7561 13.2836 10.9525 13.7579 11.3022 14.1075C11.6519 14.4572 12.1262 14.6537 12.6207 14.6537C13.1152 14.6537 13.5895 14.4572 13.9391 14.1075C14.2888 13.7579 14.4853 13.2836 14.4853 12.7891C14.4853 12.2946 14.2888 11.8203 13.9391 11.4706C13.5895 11.1209 13.1152 10.9245 12.6207 10.9245Z" fill="#F24E1E"/>
    <path d="M42.0646 17.971C42.0646 18.1652 42.0549 18.3303 42.0355 18.4662C42.0225 18.5957 41.9999 18.7058 41.9675 18.7964C41.9351 18.8806 41.8931 18.9421 41.8413 18.9809C41.7959 19.0198 41.7409 19.0392 41.6762 19.0392H35.9173C35.7037 19.0392 35.5224 18.9777 35.3735 18.8547C35.231 18.7252 35.1598 18.518 35.1598 18.2332V6.8223C35.1598 6.75756 35.1793 6.69929 35.2181 6.64749C35.2634 6.5957 35.3346 6.55362 35.4318 6.52125C35.5289 6.48887 35.6583 6.46298 35.8202 6.44356C35.9885 6.42413 36.1957 6.41442 36.4417 6.41442C36.6942 6.41442 36.9014 6.42413 37.0633 6.44356C37.2251 6.46298 37.3546 6.48887 37.4517 6.52125C37.5488 6.55362 37.6168 6.5957 37.6557 6.64749C37.701 6.69929 37.7236 6.75756 37.7236 6.8223V16.9318H41.6762C41.7409 16.9318 41.7959 16.9513 41.8413 16.9901C41.8931 17.0225 41.9351 17.0808 41.9675 17.1649C41.9999 17.2426 42.0225 17.3494 42.0355 17.4854C42.0549 17.6149 42.0646 17.7767 42.0646 17.971ZM45.8715 18.709C45.8715 18.7738 45.8521 18.832 45.8132 18.8838C45.7744 18.9292 45.7064 18.968 45.6093 19.0004C45.5186 19.0327 45.3956 19.0554 45.2402 19.0683C45.0849 19.0878 44.8874 19.0975 44.6479 19.0975C44.4083 19.0975 44.2108 19.0878 44.0555 19.0683C43.9001 19.0554 43.7738 19.0327 43.6767 19.0004C43.5861 18.968 43.5213 18.9292 43.4825 18.8838C43.4436 18.832 43.4242 18.7738 43.4242 18.709V10.0659C43.4242 10.0012 43.4436 9.94613 43.4825 9.90081C43.5213 9.84901 43.5861 9.80693 43.6767 9.77456C43.7738 9.73571 43.9001 9.70658 44.0555 9.68716C44.2108 9.66773 44.4083 9.65802 44.6479 9.65802C44.8874 9.65802 45.0849 9.66773 45.2402 9.68716C45.3956 9.70658 45.5186 9.73571 45.6093 9.77456C45.7064 9.80693 45.7744 9.84901 45.8132 9.90081C45.8521 9.94613 45.8715 10.0012 45.8715 10.0659V18.709ZM46.056 7.11364C46.056 7.60568 45.9556 7.94558 45.7549 8.13334C45.5542 8.32109 45.182 8.41497 44.6381 8.41497C44.0878 8.41497 43.7156 8.32433 43.5213 8.14305C43.3336 7.96177 43.2397 7.63482 43.2397 7.1622C43.2397 6.67015 43.3368 6.33026 43.531 6.1425C43.7317 5.94827 44.1073 5.85116 44.6576 5.85116C45.2014 5.85116 45.5704 5.94504 45.7647 6.13279C45.9589 6.31407 46.056 6.64102 46.056 7.11364ZM56.2918 10.0368C56.2918 10.0691 56.2886 10.108 56.2821 10.1533C56.2821 10.1986 56.2756 10.2504 56.2627 10.3087C56.2562 10.3605 56.2432 10.422 56.2238 10.4932C56.2109 10.5644 56.1914 10.6453 56.1655 10.736L53.5629 18.5731C53.5305 18.6831 53.4852 18.7738 53.4269 18.845C53.3751 18.9097 53.2845 18.9615 53.155 19.0004C53.032 19.0392 52.8604 19.0651 52.6403 19.0781C52.4267 19.091 52.145 19.0975 51.7954 19.0975C51.4523 19.0975 51.1707 19.0878 50.9505 19.0683C50.7369 19.0554 50.5686 19.0295 50.4455 18.9907C50.3225 18.9518 50.2319 18.9 50.1736 18.8353C50.1218 18.7641 50.0797 18.6767 50.0474 18.5731L47.4447 10.736C47.4059 10.6065 47.3735 10.49 47.3476 10.3864C47.3282 10.2828 47.3152 10.2083 47.3088 10.163C47.3088 10.1177 47.3088 10.0756 47.3088 10.0368C47.3088 9.97202 47.325 9.91699 47.3573 9.87167C47.3962 9.81988 47.4609 9.7778 47.5516 9.74542C47.6422 9.71305 47.7652 9.69039 47.9206 9.67744C48.0824 9.6645 48.2831 9.65802 48.5227 9.65802C48.7881 9.65802 49.0018 9.66773 49.1636 9.68716C49.3255 9.7001 49.4517 9.72276 49.5424 9.75514C49.6395 9.78103 49.7075 9.82312 49.7463 9.88138C49.7852 9.93318 49.8175 9.99792 49.8434 10.0756L51.8148 16.4366L51.8731 16.6793L51.9314 16.4366L53.8737 10.0756C53.8931 9.99792 53.9222 9.93318 53.9611 9.88138C54.0064 9.82312 54.0744 9.78103 54.165 9.75514C54.2556 9.72276 54.3754 9.7001 54.5243 9.68716C54.6797 9.66773 54.8804 9.65802 55.1264 9.65802C55.366 9.65802 55.5602 9.6645 55.7091 9.67744C55.8645 9.69039 55.9843 9.71305 56.0684 9.74542C56.1526 9.7778 56.2109 9.81988 56.2432 9.87167C56.2756 9.91699 56.2918 9.97202 56.2918 10.0368ZM65.5467 14.1253C65.5467 14.4231 65.4788 14.6432 65.3428 14.7856C65.2133 14.9281 65.032 14.9993 64.799 14.9993H59.5257C59.5257 15.3683 59.5678 15.705 59.6519 16.0093C59.7426 16.3071 59.8818 16.5628 60.0695 16.7765C60.2637 16.9836 60.5098 17.1423 60.8076 17.2523C61.1119 17.3624 61.4744 17.4174 61.8953 17.4174C62.3226 17.4174 62.6981 17.3883 63.0218 17.33C63.3455 17.2653 63.6239 17.1973 63.857 17.1261C64.0965 17.0484 64.294 16.9804 64.4494 16.9221C64.6047 16.8574 64.731 16.825 64.8281 16.825C64.8864 16.825 64.9349 16.838 64.9738 16.8639C65.0126 16.8833 65.045 16.9221 65.0709 16.9804C65.0968 17.0387 65.113 17.1228 65.1194 17.2329C65.1324 17.3365 65.1389 17.4692 65.1389 17.6311C65.1389 17.7735 65.1356 17.8965 65.1292 18.0001C65.1227 18.0972 65.113 18.1814 65.1 18.2526C65.0871 18.3238 65.0676 18.3853 65.0417 18.4371C65.0159 18.4824 64.9802 18.5277 64.9349 18.5731C64.8961 18.6184 64.7828 18.6799 64.595 18.7576C64.4073 18.8353 64.1677 18.913 63.8764 18.9907C63.585 19.0619 63.2516 19.1234 62.8761 19.1752C62.5006 19.2334 62.0992 19.2626 61.6719 19.2626C60.9015 19.2626 60.2249 19.1655 59.6422 18.9712C59.066 18.777 58.5837 18.4824 58.1952 18.0875C57.8068 17.6926 57.5154 17.1941 57.3212 16.5919C57.1334 15.9898 57.0396 15.2841 57.0396 14.4749C57.0396 13.7044 57.1399 13.0117 57.3406 12.3966C57.5413 11.7751 57.8327 11.2507 58.2146 10.8234C58.5966 10.3896 59.0595 10.0594 59.6034 9.83283C60.1537 9.60623 60.772 9.49293 61.4582 9.49293C62.1834 9.49293 62.8017 9.59975 63.3131 9.8134C63.8311 10.0271 64.2551 10.3249 64.5853 10.7069C64.9155 11.0824 65.1583 11.5291 65.3137 12.047C65.469 12.565 65.5467 13.1282 65.5467 13.7368V14.1253ZM63.1772 13.426C63.1966 12.7398 63.0574 12.2024 62.7596 11.8139C62.4682 11.419 62.015 11.2216 61.4 11.2216C61.0892 11.2216 60.8173 11.2798 60.5842 11.3964C60.3576 11.5129 60.1666 11.6715 60.0113 11.8722C59.8623 12.0664 59.7458 12.2995 59.6616 12.5714C59.584 12.8369 59.5386 13.1217 59.5257 13.426H63.1772Z" fill="#F24E1E"/>
</svg>
