<svg width="20" height="21" viewBox="0 0 20 21" fill="none" xmlns="http://www.w3.org/2000/svg">
    <path d="M4.01542 13.6642C4.89481 13.6616 5.74093 13.3277 6.38518 12.7291L12.6791 16.3255C12.4682 17.1495 12.5611 18.022 12.9409 18.7831C13.3207 19.5442 13.9619 20.143 14.7472 20.47C15.5324 20.797 16.4091 20.8302 17.2169 20.5636C18.0246 20.297 18.7093 19.7484 19.1456 19.0183C19.5819 18.2881 19.7407 17.4252 19.5928 16.5876C19.4449 15.7499 19.0003 14.9936 18.3403 14.457C17.6803 13.9204 16.8491 13.6394 15.999 13.6655C15.1488 13.6916 14.3364 14.0231 13.7106 14.5992L7.41673 11.0028C7.48309 10.7515 7.51928 10.4911 7.52532 10.2307L13.7086 6.69666C14.304 7.23835 15.0676 7.55881 15.8712 7.60427C16.6748 7.64972 17.4697 7.41742 18.1223 6.94632C18.775 6.47523 19.2458 5.79401 19.4558 5.01694C19.6657 4.23988 19.602 3.41425 19.2754 2.67856C18.9488 1.94288 18.3791 1.34191 17.6619 0.976461C16.9447 0.611016 16.1237 0.503335 15.3365 0.671484C14.5493 0.839633 13.8439 1.27338 13.3387 1.89996C12.8334 2.52654 12.559 3.30783 12.5614 4.11275C12.5655 4.40231 12.6047 4.69086 12.6791 4.97037L6.96429 8.23495C6.63289 7.72225 6.1738 7.30459 5.63214 7.023C5.09048 6.74141 4.48488 6.60557 3.87484 6.62885C3.2648 6.65212 2.6713 6.8337 2.15267 7.15575C1.63404 7.47779 1.20811 7.92922 0.916737 8.46568C0.62536 9.00214 0.478557 9.60518 0.490754 10.2155C0.50295 10.8259 0.673726 11.4226 0.986301 11.947C1.29888 12.4714 1.7425 12.9054 2.27358 13.2065C2.80466 13.5076 3.40493 13.6653 4.01542 13.6642Z" fill="#3B3838"/>
</svg>
